<?xml version="1.0" encoding="UTF-8"?>
<svg version="1.1" xmlns="http://www.w3.org/2000/svg" width="600" height="600">
<path d="M0 0 C198 0 396 0 600 0 C600 198 600 396 600 600 C402 600 204 600 0 600 C0 402 0 204 0 0 Z " fill="#FEFEFE" transform="translate(0,0)"/>
<path d="M0 0 C5.64218744 4.69660188 10.85430711 9.71203605 16.03710938 14.90771484 C17.35313896 16.22111595 17.35313896 16.22111595 18.695755 17.56105042 C21.08398304 19.94565018 23.46996293 22.33245431 25.85478401 24.72045851 C28.36306929 27.23129257 30.87381297 29.73966648 33.38415527 32.2484436 C37.59888573 36.46135935 41.81151412 40.67636837 46.02294922 44.89257812 C50.87495054 49.75001718 55.73053874 54.60384833 60.58801222 59.45581472 C64.77521779 63.63846501 68.96044984 67.82308255 73.14407396 72.00931513 C75.63535914 74.50215029 78.12729338 76.99432654 80.62101746 79.48472214 C83.40452427 82.2647725 86.18388794 85.04894297 88.96289062 87.83349609 C89.77764359 88.64622482 90.59239655 89.45895355 91.43183899 90.29631042 C95.60519316 94.48504386 99.62526114 98.74546531 103.46681309 103.24152565 C106.03864301 106.19126186 108.81091153 108.9344358 111.58984375 111.6875 C112.17923233 112.27547363 112.76862091 112.86344727 113.37586975 113.46923828 C115.22737618 115.31522361 117.08235817 117.15766892 118.9375 119 C120.20661373 120.2640885 121.47549589 121.52840956 122.74414062 122.79296875 C125.8267632 125.86466724 128.91250428 128.93320008 132 132 C130.7258043 134.78896844 129.40895491 136.84165957 127.24523926 139.00872803 C126.40454895 139.85787781 126.40454895 139.85787781 125.546875 140.72418213 C124.62745117 141.63753326 124.62745117 141.63753326 123.68945312 142.56933594 C123.0419812 143.2203125 122.39450928 143.87128906 121.72741699 144.54199219 C119.58370145 146.69451423 117.43274557 148.83963128 115.28125 150.984375 C113.78319537 152.48377756 112.28543769 153.98347685 110.78796387 155.48345947 C107.64378857 158.6305854 104.49602059 161.7740619 101.34570312 164.91503906 C97.3289158 168.92049097 93.32109514 172.93477482 89.31598663 176.95190048 C86.22075463 180.05440321 83.12072044 183.15207252 80.01927185 186.24835968 C78.54118963 187.7251167 77.06456673 189.20333596 75.5894928 190.68309784 C55.59186632 210.73027033 32.08709087 229.87338148 2.26220703 230.31689453 C-25.75464215 230.27020843 -48.26792183 219.68357883 -68.1875 200.25 C-81.6504645 186.6285959 -90.43819427 170.59058465 -95 152 C-95.1743457 151.39051514 -95.34869141 150.78103027 -95.52832031 150.15307617 C-100.17828641 128.9273769 -94.36281167 105.12685759 -83 87 C-75.38288307 75.15303856 -66.05207658 65.52514616 -56.0546875 55.6640625 C-54.43142275 54.04827647 -52.80905248 52.43159139 -51.18753052 50.8140564 C-46.95830254 46.59995622 -42.71719601 42.39801855 -38.47332764 38.19866943 C-34.12849176 33.89506617 -29.79523791 29.5798341 -25.4609375 25.265625 C-16.98512698 16.83245795 -8.49669647 8.41211979 0 0 Z " fill="#D61821" transform="translate(222,159)"/>
<path d="M0 0 C2.48133193 1.9585475 4.90342855 3.9684259 7.30859375 6.01953125 C8.01886719 6.60734375 8.72914063 7.19515625 9.4609375 7.80078125 C27.51610446 23.0489069 40.88619518 45.60385404 43.56298828 69.26855469 C45.47821166 96.08168195 34.7246345 120.19697302 17.46009827 140.15658569 C10.42988965 148.08258079 2.93311206 155.52186781 -4.5703125 162.99609375 C-5.99256497 164.41647713 -7.41459385 165.83708443 -8.83641052 167.25790405 C-12.5478396 170.9655466 -16.26226361 174.67017409 -19.97735596 178.37414551 C-23.78036529 182.16685688 -27.58048405 185.96246213 -31.38085938 189.7578125 C-38.8149092 197.1811933 -46.25213162 204.6013867 -53.69140625 212.01953125 C-60.57769071 206.37774396 -66.77560759 200.06891514 -73.05249023 193.77197266 C-74.29467131 192.52950917 -75.5370733 191.28726652 -76.77967834 190.04522705 C-80.136771 186.68842024 -83.49078056 183.32854836 -86.84422946 179.96810198 C-90.35513541 176.45092705 -93.86889049 172.93660081 -97.38233948 169.42196655 C-104.02815061 162.77305254 -110.67140941 156.12159444 -117.31374651 149.46921003 C-124.87889349 141.89286949 -132.44689436 134.31938243 -140.01513183 126.74612927 C-155.57705916 111.17376118 -171.13541355 95.59782759 -186.69140625 80.01953125 C-182.67929064 75.21799513 -178.49536305 70.66684353 -174.08203125 66.2331543 C-173.45015396 65.59470581 -172.81827667 64.95625732 -172.16725159 64.29846191 C-170.09485214 62.20650812 -168.01859474 60.11844809 -165.94140625 58.03125 C-165.22520111 57.31096933 -164.50899597 56.59068867 -163.77108765 55.84858131 C-159.97780508 52.03451155 -156.18130371 48.22367821 -152.38232422 44.4152832 C-148.49197939 40.5139038 -144.61345519 36.60099165 -140.73751831 32.6853056 C-137.72591504 29.64735591 -134.70526679 26.61851792 -131.68225098 23.59192848 C-130.25018254 22.15503875 -128.82144628 20.7148189 -127.3963623 19.27100182 C-116.60914486 8.35087416 -105.41620119 -2.07860971 -91.19140625 -8.35546875 C-90.13602661 -8.83705444 -90.13602661 -8.83705444 -89.05932617 -9.32836914 C-59.50102806 -22.42213285 -26.17749766 -19.26268695 0 0 Z " fill="#D61821" transform="translate(429.69140625,58.98046875)"/>
<path d="M0 0 C4.16741523 1.39161902 6.79416663 3.33207679 10 6.3125 C11.30904297 7.52486328 11.30904297 7.52486328 12.64453125 8.76171875 C15.14125498 11.13422737 17.59719631 13.53225567 20 16 C20.50660156 16.44988281 21.01320313 16.89976563 21.53515625 17.36328125 C27.65387756 22.98023954 31.80779211 29.91189815 36 37 C36.57105469 37.9590625 37.14210938 38.918125 37.73046875 39.90625 C48.12917139 58.93935098 49.6680171 80.29304627 44 101 C36.17439213 127.07917819 17.92645067 145.24438423 -0.87890625 163.9765625 C-2.30115872 165.39694588 -3.7231876 166.81755318 -5.14500427 168.2383728 C-8.85643335 171.94601535 -12.57085736 175.65064284 -16.28594971 179.35461426 C-20.08895904 183.14732563 -23.8890778 186.94293088 -27.68945312 190.73828125 C-35.12350295 198.16166205 -42.56072537 205.58185545 -50 213 C-57.42615797 206.68834738 -57.42615797 206.68834738 -60.38085938 203.81201172 C-60.9441394 203.26479462 -61.50741943 202.71757751 -62.08776855 202.15377808 C-64.57832841 199.70844997 -67.0662619 197.26060878 -69.54589844 194.80419922 C-70.85768723 193.50912737 -72.17483828 192.21946639 -73.49707031 190.93505859 C-75.416421 189.07015421 -77.31908599 187.1896159 -79.21875 185.3046875 C-79.81441772 184.73168915 -80.41008545 184.1586908 -81.02380371 183.56832886 C-82.65429688 181.92919922 -82.65429688 181.92919922 -85 179 C-84.55133007 174.31506592 -81.11202842 171.73713056 -77.91064453 168.61767578 C-77.2746785 167.98609055 -76.63871246 167.35450531 -75.98347473 166.70378113 C-74.59974161 165.33146928 -73.21255352 163.96263448 -71.82236099 162.59686661 C-69.61099701 160.42387556 -67.40921087 158.24158026 -65.20968628 156.05661011 C-59.73560388 150.62261156 -54.24569406 145.2046947 -48.75567627 139.7868042 C-44.13036241 135.22118109 -39.5115727 130.64913716 -34.90090561 126.06872177 C-32.75204845 123.93904211 -30.59422141 121.8187617 -28.43582153 119.69876099 C-7.50482246 99.00447578 10.12595386 74.8520295 10.375 44.1875 C10.23348558 29.95462033 7.53749892 17.98132847 1.42578125 5.1328125 C0 2 0 2 0 0 Z " fill="#B11216" transform="translate(426,58)"/>
<path d="M0 0 C2.99943905 1.34572887 5.08076179 2.83537101 7.39160156 5.16455078 C8.35214447 6.12532028 8.35214447 6.12532028 9.33209229 7.10549927 C10.01140808 7.79513763 10.69072388 8.484776 11.390625 9.1953125 C12.09523865 9.90275604 12.79985229 10.61019958 13.52581787 11.33908081 C15.7719539 13.59639862 18.01103009 15.86057633 20.25 18.125 C21.77297717 19.65800953 23.29640939 21.19056715 24.8203125 22.72265625 C28.55216815 26.47654573 32.27825351 30.23608914 36 34 C34.7258043 36.78896844 33.40895491 38.84165957 31.24523926 41.00872803 C30.40454895 41.85787781 30.40454895 41.85787781 29.546875 42.72418213 C28.62745117 43.63753326 28.62745117 43.63753326 27.68945312 44.56933594 C27.0419812 45.2203125 26.39450928 45.87128906 25.72741699 46.54199219 C23.58370145 48.69451423 21.43274557 50.83963128 19.28125 52.984375 C17.78319537 54.48377756 16.28543769 55.98347685 14.78796387 57.48345947 C11.64378857 60.6305854 8.49602059 63.7740619 5.34570312 66.91503906 C1.3289158 70.92049097 -2.67890486 74.93477482 -6.68401337 78.95190048 C-9.77924537 82.05440321 -12.87927956 85.15207252 -15.98072815 88.24835968 C-17.45881037 89.7251167 -18.93543327 91.20333596 -20.4105072 92.68309784 C-40.40813368 112.73027033 -63.91290913 131.87338148 -93.73779297 132.31689453 C-121.89205883 132.26997944 -144.43588182 121.59150673 -164.375 102 C-169.23834946 97.10423348 -173.32256011 91.85282687 -177 86 C-176.505 85.01 -176.505 85.01 -176 84 C-175.175 84.45890625 -174.35 84.9178125 -173.5 85.390625 C-154.43274374 95.52010489 -132.09021393 99.1142506 -110.94921875 93.15087891 C-107.22089765 91.93886945 -103.60292933 90.54255522 -100 89 C-98.34871094 88.31550781 -98.34871094 88.31550781 -96.6640625 87.6171875 C-76.78309636 78.48551014 -61.57913781 61.73996132 -46.38671875 46.484375 C-45.03788489 45.13366995 -43.68882555 43.78319003 -42.33955383 42.43292236 C-38.83415797 38.92375644 -35.33177855 35.41159566 -31.83007812 31.89874268 C-28.23819076 28.29652086 -24.64337671 24.69722216 -21.04882812 21.09765625 C-14.02972927 14.06791763 -7.01382238 7.03500289 0 0 Z " fill="#B11115" transform="translate(318,257)"/>
<path d="M0 0 C8.79925128 5.70370629 13.77325619 14.10110921 17.609375 23.69140625 C17.609375 28.64140625 17.609375 33.59140625 17.609375 38.69140625 C-5.490625 38.69140625 -28.590625 38.69140625 -52.390625 38.69140625 C-48.90047649 49.16185178 -46.04420819 56.48070037 -36.703125 62.19140625 C-29.17007522 65.60259861 -19.62247245 66.13184356 -11.65234375 63.9375 C-5.57017746 61.3308573 -1.24193605 58.43624554 1.734375 52.44140625 C2.94140625 50.33203125 2.94140625 50.33203125 4.609375 48.69140625 C8.36039624 47.99107414 11.83832803 48.2158977 15.609375 48.69140625 C14.29257182 57.23566328 8.53782611 63.45224972 2.11328125 68.8984375 C-7.57243488 75.8340751 -17.69252005 77.62939863 -29.390625 76.69140625 C-40.53786385 74.23398042 -51.06217458 67.24044212 -57.390625 57.69140625 C-63.1762929 46.01487649 -66.05060253 33.57406271 -61.828125 20.81640625 C-57.23533394 9.97677699 -48.36937209 0.75843171 -37.765625 -4.30859375 C-24.81344178 -9.22777331 -11.66220344 -6.68482655 0 0 Z " fill="#454546" transform="translate(205.390625,456.30859375)"/>
<path d="M0 0 C3.63 0 7.26 0 11 0 C11.09320325 9.29343083 11.16401772 18.58669762 11.20724869 27.88049603 C11.22801075 32.19727424 11.25611657 36.51372972 11.30175781 40.83032227 C11.34562656 45.0060163 11.36922237 49.18140242 11.37950897 53.35730934 C11.38682754 54.94032441 11.4011161 56.52332507 11.42292023 58.10620689 C11.5816734 70.12283592 10.86043401 82.23400623 3 92 C2.319375 92.969375 1.63875 93.93875 0.9375 94.9375 C-5.97081769 102.99014025 -16.20902697 107.40625372 -26.57421875 108.3125 C-38.11422127 108.68588734 -47.02409065 106.46755795 -55.93359375 98.9765625 C-65.61544142 89.71566473 -69.99746649 79.15997242 -70.3125 65.8125 C-70.18944461 54.9836256 -66.08328458 46.11822369 -59 38 C-48.46058303 28.17880004 -39.42911055 25.47153819 -25.3046875 25.7265625 C-15.04323686 26.17933948 -9.21522063 30.61038396 -1 37 C-0.67 24.79 -0.34 12.58 0 0 Z M-54.37890625 48.55859375 C-58.23116225 54.36018412 -59.55934358 59.49569518 -59.5 66.3125 C-59.49572998 67.05798096 -59.49145996 67.80346191 -59.48706055 68.5715332 C-59.2903146 74.97516198 -57.71491535 79.72523069 -54 85 C-53.61585938 85.58007812 -53.23171875 86.16015625 -52.8359375 86.7578125 C-48.64348995 92.43330272 -41.84633112 96.52334035 -35 98 C-25.66360435 98.96175232 -18.51210087 97.03699097 -10.75 91.8125 C-3.04484626 83.93222913 0.50102114 76.35814739 0.49975586 65.3046875 C0.21242001 55.95725996 -3.64958781 48.85986069 -10.375 42.4375 C-17.41812309 36.81002126 -23.58758784 35.28002851 -32.62109375 35.53125 C-41.78333687 36.80231263 -48.4803653 41.67062013 -54.37890625 48.55859375 Z " fill="#444445" transform="translate(303,425)"/>
<path d="M0 0 C9.65639156 7.16441954 16.11429953 15.90207378 19.42578125 27.45703125 C20.64325012 39.94316551 18.5936029 51.10643588 11.1796875 61.36328125 C4.79713319 68.9825443 -2.86443217 74.60113283 -12.51171875 77.26953125 C-13.52234375 77.33140625 -14.53296875 77.39328125 -15.57421875 77.45703125 C-16.35023438 77.51890625 -17.12625 77.58078125 -17.92578125 77.64453125 C-28.92763687 78.15182142 -38.46271309 75.18443309 -46.8671875 68.04296875 C-48.12670258 66.87280142 -49.35855641 65.67269359 -50.57421875 64.45703125 C-50.90421875 76.99703125 -51.23421875 89.53703125 -51.57421875 102.45703125 C-54.87421875 102.45703125 -58.17421875 102.45703125 -61.57421875 102.45703125 C-61.69062295 92.88559707 -61.77919055 83.31441058 -61.83327961 73.7424202 C-61.85925395 69.29661106 -61.89442601 64.85129003 -61.95141602 60.40576172 C-62.00617462 56.10686267 -62.03573049 51.80842987 -62.04860497 47.50920868 C-62.05776693 45.87789328 -62.07565603 44.24660028 -62.10286903 42.61548615 C-62.33918325 27.84932074 -59.14706795 16.48307072 -48.80078125 5.58984375 C-35.47576485 -7.08251878 -15.92528168 -9.54550268 0 0 Z M-38.57421875 10.45703125 C-39.20714844 10.96492188 -39.84007812 11.4728125 -40.4921875 11.99609375 C-46.41666502 17.3268603 -50.09666635 23.33081093 -51.01953125 31.3046875 C-51.47450283 41.10926677 -49.97186199 49.40861039 -43.82421875 57.26953125 C-39.0639399 62.39319017 -33.17510053 66.1709226 -26.1328125 66.73046875 C-15.42914107 67.10468652 -7.96715579 65.66845098 0.23828125 58.26953125 C7.28811502 50.46793796 8.98430659 43.51135481 8.796875 33.0703125 C7.85095204 23.86000996 4.20970155 17.71544515 -2.63671875 11.62109375 C-12.9460594 3.61573454 -27.97331203 1.80950071 -38.57421875 10.45703125 Z " fill="#444445" transform="translate(400.57421875,455.54296875)"/>
<path d="M0 0 C3.63 0 7.26 0 11 0 C11 35.31 11 70.62 11 107 C7.37 107 3.74 107 0 107 C0 71.69 0 36.38 0 0 Z " fill="#484849" transform="translate(460,424)"/>
<path d="M0 0 C6.01025484 4.20810733 9.98375033 9.8868667 12.52734375 16.76953125 C12.52734375 17.75953125 12.52734375 18.74953125 12.52734375 19.76953125 C-7.27265625 19.76953125 -27.07265625 19.76953125 -47.47265625 19.76953125 C-45.94650618 12.13878092 -42.71505792 5.86245887 -36.4609375 1.0546875 C-25.06363657 -6.31213373 -11.82035888 -6.77489026 0 0 Z " fill="#FDFDFD" transform="translate(200.47265625,465.23046875)"/>
<path d="M0 0 C0 3.3 0 6.6 0 10 C-1.06927734 10.29390625 -1.06927734 10.29390625 -2.16015625 10.59375 C-9.29779476 12.82246081 -13.99343906 15.54918491 -18 22 C-18.99939464 25.16166722 -19.15126644 28.10600507 -19.20532227 31.41113281 C-19.22526749 32.49195129 -19.24521271 33.57276978 -19.26576233 34.68634033 C-19.29083107 36.42714874 -19.29083107 36.42714874 -19.31640625 38.203125 C-19.33718735 39.39605164 -19.35796844 40.58897827 -19.37937927 41.8180542 C-19.44476239 45.62864423 -19.50370776 49.43930314 -19.5625 53.25 C-19.60569589 55.83334046 -19.64931052 58.41667395 -19.69335938 61 C-19.80043237 67.33326274 -19.90173174 73.66659477 -20 80 C-23.63 80 -27.26 80 -31 80 C-31 53.93 -31 27.86 -31 1 C-28.03 1 -25.06 1 -22 1 C-21.67 4.3 -21.34 7.6 -21 11 C-20.01 9.741875 -19.02 8.48375 -18 7.1875 C-12.92927715 1.39970524 -7.70574984 -0.57793124 0 0 Z " fill="#444445" transform="translate(135,451)"/>
<path d="M0 0 C3.3 0 6.6 0 10 0 C10 35.31 10 70.62 10 107 C6.7 107 3.4 107 0 107 C0 71.69 0 36.38 0 0 Z " fill="#404041" transform="translate(487,424)"/>
<path d="M0 0 C3.63 0 7.26 0 11 0 C11 26.07 11 52.14 11 79 C7.37 79 3.74 79 0 79 C0 52.93 0 26.86 0 0 Z " fill="#4B4B4C" transform="translate(434,452)"/>
<path d="M0 0 C3.63 0 7.26 0 11 0 C11 6.27 11 12.54 11 19 C7.37 19 3.74 19 0 19 C0 12.73 0 6.46 0 0 Z " fill="#4F4F50" transform="translate(434,424)"/>
</svg>
